<svg width="32.000000" height="32.000000" viewBox="0 0 32 32" fill="none" xmlns="http://www.w3.org/2000/svg" xmlns:xlink="http://www.w3.org/1999/xlink">
	<desc>
			Created with Pixso.
	</desc>
	<defs>
		<clipPath id="clip2_4411">
			<rect id="SVG" width="18.000000" height="18.000000" transform="translate(6.370117 6.750000)" fill="white" fill-opacity="0"/>
		</clipPath>
	</defs>
	<rect id="Background" rx="16.000000" width="32.000000" height="32.000000" transform="translate(-0.629883 -0.250000)" fill="#F1EFF4" fill-opacity="1.000000"/>
	<g clip-path="url(#clip2_4411)">
		<mask id="mask2_4414" mask-type="alpha" maskUnits="userSpaceOnUse" x="6.370117" y="6.750000" width="18.000000" height="18.000000">
			<path id="Vector" d="M6.37 6.75L24.37 6.75L24.37 24.75L6.37 24.75L6.37 6.75Z" fill="#000000" fill-opacity="1.000000" fill-rule="evenodd"/>
		</mask>
		<g mask="url(#mask2_4414)">
			<path id="Vector" d="M20.43 21.93C20.43 22.16 20.36 22.37 20.24 22.56C20.11 22.74 19.94 22.89 19.73 22.97C19.53 23.06 19.3 23.08 19.08 23.04C18.87 22.99 18.66 22.89 18.51 22.73C18.35 22.57 18.24 22.37 18.2 22.15C18.16 21.93 18.18 21.71 18.26 21.5C18.35 21.3 18.49 21.12 18.68 21C18.86 20.87 19.08 20.81 19.3 20.81C19.6 20.81 19.89 20.93 20.1 21.14C20.31 21.35 20.43 21.63 20.43 21.93ZM11.99 20.81C11.77 20.81 11.55 20.87 11.37 21C11.18 21.12 11.04 21.3 10.95 21.5C10.87 21.71 10.84 21.93 10.89 22.15C10.93 22.37 11.04 22.57 11.19 22.73C11.35 22.89 11.55 22.99 11.77 23.04C11.99 23.08 12.22 23.06 12.42 22.97C12.63 22.89 12.8 22.74 12.93 22.56C13.05 22.37 13.12 22.16 13.12 21.93C13.12 21.63 13 21.35 12.79 21.14C12.57 20.93 12.29 20.81 11.99 20.81ZM22.4 11.47C22.35 11.4 22.28 11.34 22.2 11.31C22.13 11.27 22.04 11.25 21.95 11.25L9.76 11.25L9.19 9.25C9.12 9.01 8.98 8.81 8.79 8.66C8.59 8.51 8.35 8.43 8.11 8.43L6.93 8.43C6.78 8.43 6.64 8.49 6.53 8.6C6.42 8.7 6.37 8.85 6.37 9C6.37 9.14 6.42 9.29 6.53 9.39C6.64 9.5 6.78 9.56 6.93 9.56L8.11 9.56L8.8 11.96L8.8 11.97L10.65 18.46C10.76 18.81 10.97 19.12 11.26 19.34C11.56 19.56 11.91 19.68 12.28 19.68L19.01 19.68C19.38 19.68 19.74 19.56 20.03 19.34C20.32 19.12 20.54 18.81 20.64 18.46L22.5 11.96C22.52 11.88 22.52 11.79 22.51 11.71C22.49 11.62 22.46 11.54 22.4 11.47Z" fill="#51267D" fill-opacity="1.000000" fill-rule="nonzero"/>
		</g>
	</g>
</svg>
