<svg width="20.000000" height="20.000000" viewBox="0 0 20 20" fill="none" xmlns="http://www.w3.org/2000/svg" xmlns:xlink="http://www.w3.org/1999/xlink">
	<desc>
			Created with Pixso.
	</desc>
	<defs/>
	<path id="Vector" d="M20 9.5C20 3.98 15.52 -0.5 10 -0.5C4.47 -0.5 0 3.98 0 9.5C0 14.33 3.43 18.37 8 19.29L8 12.5L6 12.5L6 9.5L8 9.5L8 7C8 5.07 9.56 3.5 11.5 3.5L14 3.5L14 6.5L12 6.5C11.45 6.5 11 6.95 11 7.5L11 9.5L14 9.5L14 12.5L11 12.5L11 19.45C16.04 18.95 20 14.69 20 9.5Z" fill="#808080" fill-opacity="1.000000" fill-rule="nonzero"/>
</svg>
