<svg width="20.000000" height="20.000000" viewBox="0 0 20 20" fill="none" xmlns="http://www.w3.org/2000/svg" xmlns:xlink="http://www.w3.org/1999/xlink">
	<desc>
			Created with Pixso.
	</desc>
	<defs/>
	<path id="Vector" d="M5.79 -0.5L14.2 -0.5C17.39 -0.5 20 2.09 20 5.29L20 13.7C20 15.23 19.38 16.71 18.3 17.8C17.21 18.88 15.73 19.5 14.2 19.5L5.79 19.5C2.6 19.5 0 16.9 0 13.7L0 5.29C0 3.76 0.61 2.28 1.69 1.19C2.78 0.11 4.26 -0.5 5.79 -0.5ZM5.6 1.5C4.64 1.5 3.72 1.87 3.05 2.55C2.37 3.22 2 4.14 2 5.09L2 13.9C2 15.88 3.6 17.5 5.6 17.5L14.39 17.5C15.35 17.5 16.27 17.12 16.94 16.44C17.62 15.77 18 14.85 18 13.9L18 5.09C18 3.11 16.39 1.5 14.39 1.5L5.6 1.5ZM15.25 3C15.58 3 15.89 3.13 16.13 3.36C16.36 3.6 16.5 3.91 16.5 4.25C16.5 4.58 16.36 4.89 16.13 5.13C15.89 5.36 15.58 5.5 15.25 5.5C14.91 5.5 14.6 5.36 14.36 5.13C14.13 4.89 14 4.58 14 4.25C14 3.91 14.13 3.6 14.36 3.36C14.6 3.13 14.91 3 15.25 3ZM10 4.5C11.32 4.5 12.59 5.02 13.53 5.96C14.47 6.9 15 8.17 15 9.5C15 10.82 14.47 12.09 13.53 13.03C12.59 13.97 11.32 14.5 10 14.5C8.67 14.5 7.4 13.97 6.46 13.03C5.52 12.09 5 10.82 5 9.5C5 8.17 5.52 6.9 6.46 5.96C7.4 5.02 8.67 4.5 10 4.5ZM10 6.5C9.2 6.5 8.44 6.81 7.87 7.37C7.31 7.94 7 8.7 7 9.5C7 10.29 7.31 11.05 7.87 11.62C8.44 12.18 9.2 12.5 10 12.5C10.79 12.5 11.55 12.18 12.12 11.62C12.68 11.05 13 10.29 13 9.5C13 8.7 12.68 7.94 12.12 7.37C11.55 6.81 10.79 6.5 10 6.5Z" fill="#808080" fill-opacity="1.000000" fill-rule="nonzero"/>
</svg>
