<svg width="32.000000" height="32.000000" viewBox="0 0 32 32" fill="none" xmlns="http://www.w3.org/2000/svg" xmlns:xlink="http://www.w3.org/1999/xlink">
	<desc>
			Created with Pixso.
	</desc>
	<defs>
		<clipPath id="clip2_4419">
			<rect id="SVG" width="18.000000" height="18.000000" transform="translate(7.000000 6.750000)" fill="white" fill-opacity="0"/>
		</clipPath>
	</defs>
	<rect id="Background" rx="16.000000" width="32.000000" height="32.000000" transform="translate(0.000000 -0.250000)" fill="#F1EFF4" fill-opacity="1.000000"/>
	<g clip-path="url(#clip2_4419)">
		<path id="Vector" d="M19 17.25C19.96 17.25 20.89 17.62 21.59 18.29C22.29 18.95 22.7 19.87 22.74 20.83L22.75 21L22.75 21.75C22.75 22.12 22.6 22.49 22.35 22.77C22.09 23.04 21.73 23.21 21.36 23.24L21.25 23.25L10.75 23.25C10.37 23.25 10 23.1 9.72 22.84C9.45 22.59 9.28 22.23 9.25 21.86L9.25 21.75L9.25 21C9.25 20.03 9.62 19.1 10.29 18.4C10.96 17.7 11.87 17.29 12.83 17.25L13 17.25L19 17.25ZM16 8.25C16.99 8.25 17.94 8.64 18.65 9.34C19.35 10.05 19.75 11 19.75 12C19.75 12.99 19.35 13.94 18.65 14.65C17.94 15.35 16.99 15.75 16 15.75C15 15.75 14.05 15.35 13.34 14.65C12.64 13.94 12.25 12.99 12.25 12C12.25 11 12.64 10.05 13.34 9.34C14.05 8.64 15 8.25 16 8.25Z" fill="#51267D" fill-opacity="1.000000" fill-rule="nonzero"/>
	</g>
</svg>
