<svg width="20.000000" height="14.000000" viewBox="0 0 20 14" fill="none" xmlns="http://www.w3.org/2000/svg" xmlns:xlink="http://www.w3.org/1999/xlink">
	<desc>
			Created with Pixso.
	</desc>
	<defs/>
	<path id="Vector" d="M8 9.5L13.18 6.5L8 3.5L8 9.5ZM19.56 1.66C19.68 2.13 19.77 2.76 19.83 3.57C19.91 4.37 19.93 5.05 19.93 5.66L20 6.5C20 8.69 19.83 10.29 19.56 11.33C19.31 12.23 18.73 12.8 17.83 13.05C17.35 13.19 16.5 13.28 15.18 13.33C13.87 13.41 12.68 13.44 11.58 13.44L10 13.5C5.81 13.5 3.2 13.33 2.16 13.05C1.27 12.8 0.68 12.23 0.43 11.33C0.31 10.86 0.22 10.23 0.16 9.42C0.08 8.62 0.06 7.94 0.06 7.33L0 6.5C0 4.3 0.16 2.7 0.43 1.66C0.68 0.76 1.27 0.19 2.16 -0.06C2.64 -0.2 3.5 -0.29 4.81 -0.34C6.12 -0.42 7.31 -0.45 8.41 -0.45L10 -0.5C14.18 -0.5 16.79 -0.34 17.83 -0.06C18.73 0.19 19.31 0.76 19.56 1.66Z" fill="#808080" fill-opacity="1.000000" fill-rule="nonzero"/>
</svg>
