<svg width="11.000000" height="9.000000" viewBox="0 0 11 9" fill="none" xmlns="http://www.w3.org/2000/svg" xmlns:xlink="http://www.w3.org/1999/xlink">
	<desc>
			Created with Pixso.
	</desc>
	<defs/>
	<path id="Stroke 1" d="M-0.34 3.81C-0.34 3.56 -0.15 3.35 0.09 3.32L0.16 3.31L10.16 3.31C10.44 3.31 10.66 3.54 10.66 3.81C10.66 4.07 10.47 4.27 10.23 4.31L10.16 4.31L0.16 4.31C-0.11 4.31 -0.34 4.09 -0.34 3.81Z" fill="#3D3D3D" fill-opacity="1.000000" fill-rule="nonzero"/>
	<path id="Stroke 3" d="M5.78 0.15C5.58 -0.04 5.58 -0.36 5.77 -0.56C5.95 -0.73 6.23 -0.75 6.43 -0.61L6.48 -0.56L10.51 3.46C10.69 3.64 10.71 3.91 10.56 4.11L10.51 4.17L6.48 8.18C6.29 8.38 5.97 8.38 5.77 8.18C5.6 8 5.58 7.73 5.73 7.53L5.78 7.47L9.45 3.81L5.78 0.15Z" fill="#3D3D3D" fill-opacity="1.000000" fill-rule="nonzero"/>
</svg>
